<?xml version="1.0" standalone="no"?>
<!DOCTYPE svg PUBLIC "-//W3C//DTD SVG 20010904//EN"
 "http://www.w3.org/TR/2001/REC-SVG-20010904/DTD/svg10.dtd">
<svg version="1.0" xmlns="http://www.w3.org/2000/svg"
 width="705.000000pt" height="705.000000pt" viewBox="0 0 705.000000 705.000000"
 preserveAspectRatio="xMidYMid meet">
<metadata>
Created by potrace 1.14, written by Peter Selinger 2001-2017
</metadata>
<g transform="translate(0.000000,705.000000) scale(0.100000,-0.100000)"
fill="#000000" stroke="none">
<path d="M2410 5350 c0 -5 -21 -10 -47 -10 -27 0 -57 -7 -67 -15 -11 -8 -30
-15 -43 -15 -13 0 -23 -4 -23 -10 0 -5 -11 -10 -24 -10 -14 0 -31 -7 -40 -15
-8 -8 -24 -15 -35 -15 -12 0 -21 -4 -21 -10 0 -5 -7 -10 -15 -10 -8 0 -15 -7
-15 -15 0 -9 -9 -15 -21 -15 -12 0 -36 -16 -55 -35 -18 -19 -36 -35 -39 -35
-8 0 -65 -57 -65 -65 0 -3 -16 -21 -35 -39 -19 -19 -35 -38 -35 -45 0 -6 -7
-11 -15 -11 -8 0 -15 -9 -15 -20 0 -11 -4 -20 -10 -20 -5 0 -10 -7 -10 -15 0
-8 -7 -15 -15 -15 -9 0 -15 -9 -15 -25 0 -14 -4 -25 -10 -25 -5 0 -10 -11 -10
-25 0 -16 -6 -25 -15 -25 -10 0 -15 -10 -15 -30 0 -16 -4 -30 -10 -30 -5 0
-10 -10 -10 -22 -1 -13 -7 -34 -15 -48 -8 -14 -14 -49 -15 -77 0 -29 -4 -53
-10 -53 -6 0 -10 -65 -10 -175 0 -110 4 -175 10 -175 6 0 10 -31 10 -74 0 -45
4 -76 11 -78 6 -2 13 -25 16 -51 3 -26 10 -47 14 -47 5 0 9 -15 9 -32 0 -18 7
-42 15 -52 8 -11 15 -30 15 -43 0 -13 5 -23 10 -23 6 0 10 -10 10 -23 0 -13 7
-32 15 -43 8 -10 15 -29 15 -41 0 -13 5 -23 10 -23 6 0 10 -11 10 -25 0 -16 6
-25 15 -25 9 0 15 -9 15 -25 0 -14 4 -25 9 -25 5 0 12 -11 15 -25 4 -14 11
-25 16 -25 6 0 10 -11 10 -25 0 -14 4 -25 9 -25 5 0 12 -11 15 -25 4 -14 11
-25 16 -25 6 0 10 -5 10 -11 0 -6 6 -17 13 -24 29 -34 37 -45 37 -55 0 -10 8
-21 38 -55 6 -7 12 -18 12 -24 0 -6 4 -11 10 -11 5 0 12 -11 16 -25 3 -14 9
-25 14 -25 4 0 15 -16 26 -35 10 -19 22 -35 26 -35 5 0 8 -7 8 -15 0 -8 7 -15
15 -15 8 0 15 -5 15 -10 0 -10 8 -22 38 -55 6 -7 12 -17 12 -21 0 -3 16 -21
35 -40 19 -18 35 -37 35 -43 0 -5 11 -21 25 -35 14 -14 25 -30 25 -36 0 -5 7
-10 15 -10 8 0 15 -5 15 -10 0 -6 17 -28 38 -49 45 -48 62 -68 62 -75 0 -3 27
-33 60 -65 33 -33 60 -64 60 -70 0 -6 7 -11 15 -11 8 0 15 -5 15 -11 0 -14 25
-39 39 -39 6 0 11 -7 11 -15 0 -8 11 -25 25 -39 14 -14 25 -30 25 -36 0 -5 5
-10 11 -10 14 0 39 -25 39 -39 0 -6 7 -11 15 -11 8 0 15 -5 15 -11 0 -14 25
-39 39 -39 6 0 11 -5 11 -11 0 -14 25 -39 39 -39 6 0 11 -5 11 -11 0 -6 28
-39 63 -74 68 -70 87 -92 87 -99 0 -3 56 -61 125 -130 69 -69 125 -130 125
-136 0 -5 5 -10 10 -10 6 0 28 -18 50 -40 22 -22 40 -44 40 -50 0 -5 5 -10 11
-10 14 0 39 -25 39 -39 0 -6 7 -11 15 -11 8 0 15 -5 15 -11 0 -16 26 -39 44
-39 17 0 56 34 56 48 0 5 11 15 25 22 14 7 25 17 25 22 0 12 7 20 163 178 75
77 137 145 137 150 0 6 5 10 11 10 11 0 69 54 69 65 0 10 28 35 39 35 6 0 11
5 11 11 0 14 25 39 39 39 6 0 11 5 11 11 0 14 25 39 39 39 6 0 11 5 11 11 0 6
12 24 28 39 42 45 52 58 52 70 0 5 5 10 11 10 11 0 39 25 39 35 0 10 28 35 39
35 6 0 11 5 11 11 0 6 27 38 60 70 33 32 60 63 60 69 0 5 7 10 15 10 8 0 15 7
15 15 0 8 22 37 50 64 28 27 50 54 50 60 0 6 5 11 11 11 11 0 39 25 39 35 0 4
6 13 13 20 29 33 37 45 37 55 0 5 7 10 15 10 8 0 15 5 15 11 0 6 16 25 35 43
19 19 35 38 35 44 0 6 11 22 25 36 14 14 25 30 25 36 0 5 7 10 15 10 8 0 15 7
15 15 0 8 3 15 8 15 4 0 16 16 26 35 11 19 22 35 26 35 5 0 11 11 14 25 4 14
11 25 16 25 6 0 10 5 10 11 0 7 11 22 25 35 14 13 25 28 25 35 0 6 11 22 25
35 14 13 25 32 25 44 0 11 4 20 10 20 5 0 12 11 16 25 3 14 10 25 15 25 5 0 9
7 9 15 0 8 4 15 10 15 5 0 12 11 16 25 3 14 10 25 15 25 5 0 9 6 9 14 0 17 32
80 43 84 4 2 7 15 7 28 0 15 6 24 15 24 9 0 15 9 15 25 0 14 5 25 10 25 6 0
10 11 10 24 0 14 7 31 15 40 8 8 15 26 15 40 0 14 5 26 10 26 6 0 10 14 10 31
0 17 7 37 15 45 8 9 15 33 15 55 0 21 4 39 9 39 4 0 11 25 14 56 3 31 11 62
16 67 18 18 14 476 -4 507 -8 14 -14 37 -15 53 0 15 -4 27 -10 27 -5 0 -10 15
-10 34 0 21 -6 36 -15 40 -8 3 -15 15 -15 26 0 11 -4 20 -10 20 -5 0 -10 11
-10 24 0 13 -7 26 -15 30 -8 3 -15 15 -15 26 0 11 -4 20 -10 20 -5 0 -10 7
-10 15 0 8 -7 15 -15 15 -8 0 -15 5 -15 11 0 6 -6 17 -12 24 -27 30 -38 44
-38 49 0 7 -109 116 -116 116 -5 0 -19 11 -49 38 -7 6 -18 12 -24 12 -6 0 -11
4 -11 10 0 5 -11 12 -25 16 -14 3 -25 10 -25 15 0 5 -11 9 -25 9 -16 0 -25 6
-25 15 0 9 -9 15 -25 15 -14 0 -25 5 -25 10 0 6 -12 10 -27 10 -16 1 -39 7
-53 15 -14 8 -46 14 -72 15 -27 0 -48 5 -48 10 0 6 -53 10 -140 10 -87 0 -140
-4 -140 -10 0 -5 -22 -10 -50 -10 -27 0 -50 -4 -50 -10 0 -5 -18 -13 -40 -16
-22 -4 -40 -10 -40 -15 0 -5 -11 -9 -25 -9 -14 0 -25 -4 -25 -10 0 -5 -11 -12
-25 -16 -14 -3 -25 -10 -25 -15 0 -5 -11 -9 -25 -9 -16 0 -25 -6 -25 -15 0 -9
-9 -15 -21 -15 -12 0 -32 -11 -45 -25 -13 -14 -28 -25 -34 -25 -6 0 -21 -11
-34 -25 -13 -14 -28 -25 -35 -25 -6 0 -11 -5 -11 -11 0 -14 -25 -39 -39 -39
-6 0 -11 -5 -11 -11 0 -14 -25 -39 -39 -39 -6 0 -11 -5 -11 -11 0 -14 -25 -39
-39 -39 -6 0 -11 -6 -11 -13 0 -7 -11 -21 -25 -31 -14 -10 -25 -26 -25 -34 0
-8 -11 -25 -25 -38 -14 -13 -25 -28 -25 -34 0 -5 -4 -10 -9 -10 -5 0 -13 -10
-17 -22 -3 -12 -13 -29 -21 -37 -13 -12 -16 -12 -24 0 -5 8 -9 20 -9 27 0 6
-4 12 -10 12 -5 0 -10 7 -10 15 0 8 -4 15 -9 15 -5 0 -13 10 -17 22 -3 12 -22
36 -40 54 -19 17 -34 35 -34 38 0 11 -27 36 -39 36 -6 0 -11 5 -11 11 0 14
-25 39 -39 39 -6 0 -11 5 -11 11 0 14 -25 39 -39 39 -6 0 -11 7 -11 15 0 8 -5
15 -11 15 -6 0 -25 16 -43 35 -19 19 -36 35 -40 35 -7 0 -20 10 -51 38 -7 6
-18 12 -24 12 -6 0 -11 4 -11 10 0 5 -11 12 -25 16 -14 3 -25 10 -25 15 0 5
-11 9 -24 9 -13 0 -26 7 -30 15 -3 8 -17 15 -31 15 -14 0 -25 5 -25 10 0 6
-14 10 -31 10 -17 0 -37 7 -45 15 -10 9 -34 15 -65 15 -27 0 -49 5 -49 10 0 6
-53 10 -140 10 -87 0 -140 -4 -140 -10z m2136 -175 c27 -8 68 -15 92 -15 23 0
42 -4 42 -10 0 -5 11 -10 24 -10 13 0 29 -7 36 -15 7 -8 19 -15 27 -15 13 0
23 -7 58 -37 7 -7 21 -13 30 -13 9 0 26 -11 39 -25 13 -14 26 -25 30 -25 11 0
36 -27 36 -39 0 -6 5 -11 11 -11 14 0 39 -25 39 -39 0 -6 7 -11 15 -11 8 0 15
-7 15 -15 0 -8 5 -15 10 -15 6 0 10 -5 10 -11 0 -6 6 -17 13 -24 31 -36 37
-46 37 -65 0 -11 4 -20 10 -20 5 0 13 -18 16 -40 4 -22 10 -40 14 -40 5 0 10
-19 13 -42 3 -24 10 -68 16 -98 11 -57 6 -110 -10 -110 -5 0 -9 11 -9 25 0 23
-3 25 -49 25 -27 0 -51 5 -53 11 -2 6 -25 13 -51 16 -26 3 -47 10 -47 14 0 5
-16 9 -35 9 -19 0 -35 4 -35 9 0 5 -29 13 -65 16 -36 4 -65 11 -65 16 0 5 -45
9 -100 9 -73 0 -100 3 -100 13 0 8 -4 7 -10 -3 -9 -13 -11 -13 -19 -1 -7 11
-39 16 -120 19 -61 3 -111 8 -111 13 0 5 -80 9 -177 10 -98 0 -203 5 -233 10
-30 5 -74 12 -97 15 -24 4 -43 11 -43 15 0 12 -27 12 -32 0 -5 -15 -40 -17
-45 -3 -3 6 2 12 11 12 9 0 16 7 16 15 0 8 3 15 8 15 4 0 16 16 26 35 11 19
23 35 28 35 4 0 8 7 8 15 0 8 5 15 11 15 6 0 17 6 25 14 8 8 14 19 14 25 0 6
7 11 15 11 8 0 15 5 15 10 0 14 75 90 89 90 6 0 11 7 11 15 0 8 5 15 10 15 6
0 22 11 36 25 14 14 31 25 39 25 8 0 15 5 15 10 0 6 7 10 15 10 8 0 15 4 15
10 0 5 11 12 25 16 14 3 25 10 25 15 0 5 11 9 24 9 14 0 31 7 40 15 8 8 26 15
40 15 14 0 26 5 26 10 0 6 17 10 38 10 20 1 60 7 87 15 66 18 102 18 161 0z
m-1853 -11 c37 -4 67 -11 67 -15 0 -5 13 -9 29 -9 16 0 36 -7 45 -15 8 -8 24
-15 35 -15 12 0 21 -4 21 -9 0 -5 11 -12 25 -15 14 -4 25 -11 25 -16 0 -6 10
-10 21 -10 12 0 32 -11 45 -25 13 -14 28 -25 34 -25 12 0 200 -186 200 -198 0
-4 11 -19 25 -34 14 -15 25 -30 25 -34 0 -4 11 -17 25 -30 25 -23 34 -54 15
-54 -5 0 -10 5 -10 10 0 6 -6 10 -14 10 -8 0 -17 6 -20 13 -5 10 -7 10 -12 0
-4 -9 -28 -13 -69 -13 -41 0 -65 -4 -69 -12 -5 -10 -7 -10 -12 0 -7 15 -114
17 -114 2 0 -5 -16 -10 -35 -10 -19 0 -35 5 -35 10 0 14 -47 12 -54 -2 -5 -10
-7 -10 -12 0 -6 14 -34 17 -34 3 0 -9 -130 -25 -192 -24 -21 1 -38 -3 -38 -8
0 -5 -29 -9 -65 -9 -36 0 -65 -4 -65 -9 0 -4 -37 -11 -82 -14 -45 -3 -84 -10
-86 -16 -2 -7 -45 -11 -117 -11 -81 0 -115 -4 -119 -12 -5 -10 -7 -10 -12 0
-4 8 -28 12 -70 12 -50 0 -64 3 -64 15 0 9 -9 15 -25 15 -21 0 -25 -5 -25 -27
0 -16 -5 -35 -10 -43 -7 -11 -10 0 -10 38 0 28 5 52 10 52 6 0 10 18 10 40 0
22 4 40 10 40 5 0 12 16 16 35 3 19 10 35 15 35 5 0 9 11 9 25 0 16 6 25 15
25 8 0 15 7 15 15 0 8 5 15 10 15 6 0 10 7 10 15 0 9 11 26 25 39 14 13 25 28
25 35 0 6 5 11 11 11 14 0 39 25 39 39 0 6 11 11 25 11 16 0 25 6 25 15 0 8 7
15 15 15 8 0 15 5 15 10 0 6 9 10 19 10 10 0 21 7 25 15 3 8 12 15 21 15 8 0
15 5 15 10 0 6 11 10 24 10 13 0 29 7 36 15 7 8 28 15 46 15 19 0 34 5 34 10
0 6 24 10 53 10 28 0 59 5 67 11 14 9 43 8 193 -7z"/>
</g>
</svg>
